<mxfile host="app.diagrams.net" agent="Mozilla/5.0 (Windows NT 10.0; Win64; x64) AppleWebKit/537.36 (KHTML, like Gecko) Chrome/136.0.0.0 Safari/537.36 Edg/136.0.0.0" version="27.0.6">
  <diagram name="Page-1" id="QcKwQKGzDs2-om4tUf7h">
    <mxGraphModel dx="1657" dy="786" grid="1" gridSize="10" guides="1" tooltips="1" connect="1" arrows="1" fold="1" page="1" pageScale="1" pageWidth="850" pageHeight="1100" math="0" shadow="0">
      <root>
        <mxCell id="0" />
        <mxCell id="1" parent="0" />
        <mxCell id="Ld7IHL5H0bj1q1SIQF-S-1" value="" style="shape=table;startSize=0;container=1;collapsible=0;childLayout=tableLayout;" vertex="1" parent="1">
          <mxGeometry x="40" y="40" width="760" height="800" as="geometry" />
        </mxCell>
        <mxCell id="Ld7IHL5H0bj1q1SIQF-S-2" value="" style="shape=tableRow;horizontal=0;startSize=0;swimlaneHead=0;swimlaneBody=0;strokeColor=inherit;top=0;left=0;bottom=0;right=0;collapsible=0;dropTarget=0;fillColor=none;points=[[0,0.5],[1,0.5]];portConstraint=eastwest;" vertex="1" parent="Ld7IHL5H0bj1q1SIQF-S-1">
          <mxGeometry width="760" height="60" as="geometry" />
        </mxCell>
        <mxCell id="Ld7IHL5H0bj1q1SIQF-S-3" value="&lt;font style=&quot;font-size: 18px;&quot;&gt;Khách hàng&lt;/font&gt;" style="shape=partialRectangle;html=1;whiteSpace=wrap;connectable=0;strokeColor=inherit;overflow=hidden;fillColor=#FFFF33;top=0;left=0;bottom=0;right=0;pointerEvents=1;" vertex="1" parent="Ld7IHL5H0bj1q1SIQF-S-2">
          <mxGeometry width="370" height="60" as="geometry">
            <mxRectangle width="370" height="60" as="alternateBounds" />
          </mxGeometry>
        </mxCell>
        <mxCell id="Ld7IHL5H0bj1q1SIQF-S-4" value="&lt;font style=&quot;font-size: 18px;&quot;&gt;Hệ thống&lt;/font&gt;" style="shape=partialRectangle;html=1;whiteSpace=wrap;connectable=0;strokeColor=inherit;overflow=hidden;fillColor=#FFFF33;top=0;left=0;bottom=0;right=0;pointerEvents=1;" vertex="1" parent="Ld7IHL5H0bj1q1SIQF-S-2">
          <mxGeometry x="370" width="390" height="60" as="geometry">
            <mxRectangle width="390" height="60" as="alternateBounds" />
          </mxGeometry>
        </mxCell>
        <mxCell id="Ld7IHL5H0bj1q1SIQF-S-5" value="" style="shape=tableRow;horizontal=0;startSize=0;swimlaneHead=0;swimlaneBody=0;strokeColor=inherit;top=0;left=0;bottom=0;right=0;collapsible=0;dropTarget=0;fillColor=none;points=[[0,0.5],[1,0.5]];portConstraint=eastwest;" vertex="1" parent="Ld7IHL5H0bj1q1SIQF-S-1">
          <mxGeometry y="60" width="760" height="740" as="geometry" />
        </mxCell>
        <mxCell id="Ld7IHL5H0bj1q1SIQF-S-6" value="" style="shape=partialRectangle;html=1;whiteSpace=wrap;connectable=0;strokeColor=inherit;overflow=hidden;fillColor=none;top=0;left=0;bottom=0;right=0;pointerEvents=1;" vertex="1" parent="Ld7IHL5H0bj1q1SIQF-S-5">
          <mxGeometry width="370" height="740" as="geometry">
            <mxRectangle width="370" height="740" as="alternateBounds" />
          </mxGeometry>
        </mxCell>
        <mxCell id="Ld7IHL5H0bj1q1SIQF-S-7" value="" style="shape=partialRectangle;html=1;whiteSpace=wrap;connectable=0;strokeColor=inherit;overflow=hidden;fillColor=none;top=0;left=0;bottom=0;right=0;pointerEvents=1;" vertex="1" parent="Ld7IHL5H0bj1q1SIQF-S-5">
          <mxGeometry x="370" width="390" height="740" as="geometry">
            <mxRectangle width="390" height="740" as="alternateBounds" />
          </mxGeometry>
        </mxCell>
        <mxCell id="Ld7IHL5H0bj1q1SIQF-S-10" value="" style="edgeStyle=orthogonalEdgeStyle;rounded=0;orthogonalLoop=1;jettySize=auto;html=1;" edge="1" parent="1" source="Ld7IHL5H0bj1q1SIQF-S-8" target="Ld7IHL5H0bj1q1SIQF-S-9">
          <mxGeometry relative="1" as="geometry" />
        </mxCell>
        <mxCell id="Ld7IHL5H0bj1q1SIQF-S-8" value="" style="ellipse;whiteSpace=wrap;html=1;fillColor=#000000;" vertex="1" parent="1">
          <mxGeometry x="132.5" y="120" width="50" height="50" as="geometry" />
        </mxCell>
        <mxCell id="Ld7IHL5H0bj1q1SIQF-S-12" style="edgeStyle=orthogonalEdgeStyle;rounded=0;orthogonalLoop=1;jettySize=auto;html=1;entryX=0;entryY=0.5;entryDx=0;entryDy=0;" edge="1" parent="1" source="Ld7IHL5H0bj1q1SIQF-S-9" target="Ld7IHL5H0bj1q1SIQF-S-11">
          <mxGeometry relative="1" as="geometry" />
        </mxCell>
        <mxCell id="Ld7IHL5H0bj1q1SIQF-S-9" value="Chọn sản phẩm muốn xem" style="rounded=1;whiteSpace=wrap;html=1;" vertex="1" parent="1">
          <mxGeometry x="65" y="190" width="185" height="60" as="geometry" />
        </mxCell>
        <mxCell id="Ld7IHL5H0bj1q1SIQF-S-14" style="edgeStyle=orthogonalEdgeStyle;rounded=0;orthogonalLoop=1;jettySize=auto;html=1;entryX=0.5;entryY=0;entryDx=0;entryDy=0;" edge="1" parent="1" source="Ld7IHL5H0bj1q1SIQF-S-11" target="Ld7IHL5H0bj1q1SIQF-S-13">
          <mxGeometry relative="1" as="geometry">
            <Array as="points">
              <mxPoint x="615" y="280" />
              <mxPoint x="158" y="280" />
            </Array>
          </mxGeometry>
        </mxCell>
        <mxCell id="Ld7IHL5H0bj1q1SIQF-S-11" value="Hiển thị thông tin sản phẩm và bình luận của mọi người về sản phẩm" style="rounded=1;whiteSpace=wrap;html=1;" vertex="1" parent="1">
          <mxGeometry x="500" y="185" width="230" height="70" as="geometry" />
        </mxCell>
        <mxCell id="Ld7IHL5H0bj1q1SIQF-S-16" value="" style="edgeStyle=orthogonalEdgeStyle;rounded=0;orthogonalLoop=1;jettySize=auto;html=1;" edge="1" parent="1" source="Ld7IHL5H0bj1q1SIQF-S-13" target="Ld7IHL5H0bj1q1SIQF-S-15">
          <mxGeometry relative="1" as="geometry" />
        </mxCell>
        <mxCell id="Ld7IHL5H0bj1q1SIQF-S-13" value="Đặt mua hàng" style="rounded=1;whiteSpace=wrap;html=1;" vertex="1" parent="1">
          <mxGeometry x="67.5" y="310" width="180" height="60" as="geometry" />
        </mxCell>
        <mxCell id="Ld7IHL5H0bj1q1SIQF-S-21" value="" style="edgeStyle=orthogonalEdgeStyle;rounded=0;orthogonalLoop=1;jettySize=auto;html=1;" edge="1" parent="1" source="Ld7IHL5H0bj1q1SIQF-S-15" target="Ld7IHL5H0bj1q1SIQF-S-17">
          <mxGeometry relative="1" as="geometry" />
        </mxCell>
        <mxCell id="Ld7IHL5H0bj1q1SIQF-S-27" style="edgeStyle=orthogonalEdgeStyle;rounded=0;orthogonalLoop=1;jettySize=auto;html=1;entryX=0;entryY=0.5;entryDx=0;entryDy=0;" edge="1" parent="1" source="Ld7IHL5H0bj1q1SIQF-S-15" target="Ld7IHL5H0bj1q1SIQF-S-26">
          <mxGeometry relative="1" as="geometry">
            <Array as="points">
              <mxPoint x="365" y="430" />
            </Array>
          </mxGeometry>
        </mxCell>
        <mxCell id="Ld7IHL5H0bj1q1SIQF-S-15" value="" style="rhombus;whiteSpace=wrap;html=1;" vertex="1" parent="1">
          <mxGeometry x="340" y="315" width="50" height="50" as="geometry" />
        </mxCell>
        <mxCell id="Ld7IHL5H0bj1q1SIQF-S-22" value="" style="edgeStyle=orthogonalEdgeStyle;rounded=0;orthogonalLoop=1;jettySize=auto;html=1;" edge="1" parent="1" source="Ld7IHL5H0bj1q1SIQF-S-17" target="Ld7IHL5H0bj1q1SIQF-S-20">
          <mxGeometry relative="1" as="geometry" />
        </mxCell>
        <mxCell id="Ld7IHL5H0bj1q1SIQF-S-17" value="Không hiển thị ô bình luận" style="rounded=1;whiteSpace=wrap;html=1;" vertex="1" parent="1">
          <mxGeometry x="490" y="310" width="160" height="60" as="geometry" />
        </mxCell>
        <mxCell id="Ld7IHL5H0bj1q1SIQF-S-19" value="" style="ellipse;whiteSpace=wrap;html=1;aspect=fixed;" vertex="1" parent="1">
          <mxGeometry x="695" y="315" width="50" height="50" as="geometry" />
        </mxCell>
        <mxCell id="Ld7IHL5H0bj1q1SIQF-S-20" value="" style="ellipse;whiteSpace=wrap;html=1;aspect=fixed;fillColor=#000000;" vertex="1" parent="1">
          <mxGeometry x="702.5" y="322.5" width="35" height="35" as="geometry" />
        </mxCell>
        <mxCell id="Ld7IHL5H0bj1q1SIQF-S-23" value="Yes" style="text;html=1;align=center;verticalAlign=middle;whiteSpace=wrap;rounded=0;" vertex="1" parent="1">
          <mxGeometry x="410" y="400" width="60" height="30" as="geometry" />
        </mxCell>
        <mxCell id="Ld7IHL5H0bj1q1SIQF-S-25" value="No" style="text;html=1;align=center;verticalAlign=middle;whiteSpace=wrap;rounded=0;" vertex="1" parent="1">
          <mxGeometry x="410" y="310" width="60" height="30" as="geometry" />
        </mxCell>
        <mxCell id="Ld7IHL5H0bj1q1SIQF-S-31" style="edgeStyle=orthogonalEdgeStyle;rounded=0;orthogonalLoop=1;jettySize=auto;html=1;entryX=0.5;entryY=0;entryDx=0;entryDy=0;" edge="1" parent="1" source="Ld7IHL5H0bj1q1SIQF-S-26" target="Ld7IHL5H0bj1q1SIQF-S-28">
          <mxGeometry relative="1" as="geometry">
            <Array as="points">
              <mxPoint x="630" y="490" />
              <mxPoint x="158" y="490" />
            </Array>
          </mxGeometry>
        </mxCell>
        <mxCell id="Ld7IHL5H0bj1q1SIQF-S-26" value="Xác nhận đặt thành công" style="rounded=1;whiteSpace=wrap;html=1;" vertex="1" parent="1">
          <mxGeometry x="540" y="400" width="180" height="60" as="geometry" />
        </mxCell>
        <mxCell id="Ld7IHL5H0bj1q1SIQF-S-33" style="edgeStyle=orthogonalEdgeStyle;rounded=0;orthogonalLoop=1;jettySize=auto;html=1;entryX=0;entryY=0.5;entryDx=0;entryDy=0;" edge="1" parent="1" source="Ld7IHL5H0bj1q1SIQF-S-28" target="Ld7IHL5H0bj1q1SIQF-S-32">
          <mxGeometry relative="1" as="geometry" />
        </mxCell>
        <mxCell id="Ld7IHL5H0bj1q1SIQF-S-28" value="Đã nhận hàng" style="rounded=1;whiteSpace=wrap;html=1;" vertex="1" parent="1">
          <mxGeometry x="97.5" y="510" width="120" height="60" as="geometry" />
        </mxCell>
        <mxCell id="Ld7IHL5H0bj1q1SIQF-S-35" style="edgeStyle=orthogonalEdgeStyle;rounded=0;orthogonalLoop=1;jettySize=auto;html=1;entryX=0.5;entryY=0;entryDx=0;entryDy=0;" edge="1" parent="1" source="Ld7IHL5H0bj1q1SIQF-S-32" target="Ld7IHL5H0bj1q1SIQF-S-34">
          <mxGeometry relative="1" as="geometry">
            <Array as="points">
              <mxPoint x="620" y="610" />
              <mxPoint x="170" y="610" />
              <mxPoint x="170" y="640" />
            </Array>
          </mxGeometry>
        </mxCell>
        <mxCell id="Ld7IHL5H0bj1q1SIQF-S-32" value="Hiển thị ô bình luận sản phẩm" style="rounded=1;whiteSpace=wrap;html=1;" vertex="1" parent="1">
          <mxGeometry x="545" y="505" width="150" height="70" as="geometry" />
        </mxCell>
        <mxCell id="Ld7IHL5H0bj1q1SIQF-S-37" style="edgeStyle=orthogonalEdgeStyle;rounded=0;orthogonalLoop=1;jettySize=auto;html=1;" edge="1" parent="1" source="Ld7IHL5H0bj1q1SIQF-S-34" target="Ld7IHL5H0bj1q1SIQF-S-36">
          <mxGeometry relative="1" as="geometry" />
        </mxCell>
        <mxCell id="Ld7IHL5H0bj1q1SIQF-S-34" value="Bình luận sản phẩm" style="rounded=1;whiteSpace=wrap;html=1;" vertex="1" parent="1">
          <mxGeometry x="95" y="640" width="152.5" height="60" as="geometry" />
        </mxCell>
        <mxCell id="Ld7IHL5H0bj1q1SIQF-S-40" value="" style="edgeStyle=orthogonalEdgeStyle;rounded=0;orthogonalLoop=1;jettySize=auto;html=1;" edge="1" parent="1" source="Ld7IHL5H0bj1q1SIQF-S-36" target="Ld7IHL5H0bj1q1SIQF-S-39">
          <mxGeometry relative="1" as="geometry" />
        </mxCell>
        <mxCell id="Ld7IHL5H0bj1q1SIQF-S-36" value="Hiển thị bình luận của khách hàng" style="rounded=1;whiteSpace=wrap;html=1;" vertex="1" parent="1">
          <mxGeometry x="540" y="640" width="160" height="60" as="geometry" />
        </mxCell>
        <mxCell id="Ld7IHL5H0bj1q1SIQF-S-38" value="" style="ellipse;whiteSpace=wrap;html=1;aspect=fixed;" vertex="1" parent="1">
          <mxGeometry x="595" y="740" width="50" height="50" as="geometry" />
        </mxCell>
        <mxCell id="Ld7IHL5H0bj1q1SIQF-S-39" value="" style="ellipse;whiteSpace=wrap;html=1;aspect=fixed;fillColor=#000000;" vertex="1" parent="1">
          <mxGeometry x="602.5" y="747.5" width="35" height="35" as="geometry" />
        </mxCell>
      </root>
    </mxGraphModel>
  </diagram>
</mxfile>
